<svg xmlns="http://www.w3.org/2000/svg" width="25" height="25" fill="none" viewBox="0 0 25 25">
    <mask id="q9wqiz3n8a" fill="#fff">
        <path fill-rule="evenodd" d="M13.78 4.192c-.054-.112-.107-.223-.13-.33-.348-.793-1.378-1.087-2.128-.678-.823.394-.906 1.303-.833 2.083-.03.055-.089.05-.148.045-.028-.002-.057-.004-.083 0-.522.368-.902.894-1.275 1.409-.099.137-.198.274-.298.406-.056 1.58-.384 3.043-.786 4.484.03.024.069.029.106.034.047.006.094.013.125.056-.236.27-.134.527-.028.794.066.168.134.339.12.52-.518 1.526-1.031 3.052-1.341 4.664-.111.257-.334.332-.557.408-.113.037-.224.075-.322.136-.133.2-.292.389-.452.578-.322.382-.645.765-.75 1.234.088.172.137.373.186.573.097.4.194.799.6.968.21.383.524.282.837.18.157-.05.314-.1.458-.09.164-.273.082-.545 0-.818-.04-.135-.081-.27-.092-.405.237-.096.515-.094.792-.091.222.001.443.003.642-.045.11-.235.212-.474.315-.712.213-.496.427-.991.702-1.462.274-1.15.693-2.26 1.248-3.306.05-.037.047-.093.046-.149-.003-.07-.005-.139.093-.169.547.134.892.598 1.225 1.046.129.174.256.345.393.495.113.311.378.563.644.815.212.2.425.402.558.634.094.345.18.694.267 1.042.183.734.366 1.468.611 2.174.023.174.013.346.003.512-.023.373-.043.716.321.983.1.063.202.134.305.205.57.394 1.19.823 1.915.428v-.589c-.09-.265-.249-.502-.407-.74-.268-.403-.536-.807-.472-1.343.085-.577-.038-1.07-.162-1.563-.123-.492-.247-.985-.161-1.563-.238-.232-.392-.498-.547-.763-.138-.236-.275-.473-.47-.686-.055-.129-.157-.24-.258-.35-.152-.164-.304-.328-.298-.555.031-.026.06-.056.088-.087.058-.06.116-.121.19-.14-.004-.413-.296-.729-.567-1.022-.077-.083-.153-.165-.22-.246-.12-.19-.281-.364-.442-.538-.201-.218-.402-.436-.528-.685l-.37.09c-.01-.094-.028-.185-.045-.276-.036-.186-.072-.372-.047-.585.028-.2.245-.332.463-.272.061-.228.073-.476.084-.724.01-.2.02-.4.054-.59.082-.155.228-.16.374-.164.062-.001.125-.003.181-.017.308.12.59 0 .856-.115.054-.023.108-.046.161-.066l.047.045c.076.033.117-.017.16-.068.022-.026.044-.052.07-.068.403.125.616-.156.831-.44.126-.166.252-.334.418-.42l.88.18c.138-.004.221-.071.184-.225.036-.103.01-.207-.016-.305-.034-.13-.064-.246.063-.33.082.193.156.39.23.585.196.521.391 1.041.741 1.499.143-.027.268-.104.37-.226-.384-.638-.773-1.332-.74-2.083.088.013.16.063.232.113.071.05.143.099.23.113.02-.022.038-.05.058-.08.074-.108.163-.238.312-.192.179-.78.833-.775 1.486-.77.326.002.652.004.918-.091l-.015-.015c-.021-.021-.043-.043-.032-.075h-.277c-.034-.017-.073-.032-.114-.046-.122-.044-.252-.09-.256-.226.027-.043.064-.062.102-.08.03-.015.06-.03.084-.056-.123-.076-.13-.196-.137-.316-.005-.08-.01-.16-.049-.228-.187-.055-.185.04-.184.148.002.087.003.182-.093.214-.12-.015-.23-.007-.333 0-.2.016-.373.029-.546-.135l.092-.09c-.033-.037-.129-.113-.23-.091-.037.274-.228.252-.445.227-.113-.013-.233-.027-.342 0-.186-.043-.168-.145-.147-.264.011-.06.023-.126.009-.19-.069.01-.126-.01-.183-.03l-.048-.016c-.023.398-.343.378-.655.358-.13-.009-.257-.017-.362.004-.124-.056-.295-.052-.466-.048-.34.007-.68.015-.644-.45-.258-.06-.429.08-.6.226-.38-.216-.607-.004-.822.196-.206.191-.4.372-.704.166-.042-.267.05-.48.185-.68.251-.26.119-.536-.009-.802zm.716 2.87c.261-.029.512-.056.633-.301-.12-.01-.237-.028-.354-.045-.244-.035-.488-.07-.756-.046l-.74.59c.083.144.287.198.462.226.148-.36.458-.393.755-.425z" clip-rule="evenodd"/>
    </mask>
    <path fill="#140474" fill-rule="evenodd" stroke="#140474" stroke-width="6" d="M13.78 4.192c-.054-.112-.107-.223-.13-.33-.348-.793-1.378-1.087-2.128-.678-.823.394-.906 1.303-.833 2.083-.03.055-.089.05-.148.045-.028-.002-.057-.004-.083 0-.522.368-.902.894-1.275 1.409-.099.137-.198.274-.298.406-.056 1.58-.384 3.043-.786 4.484.03.024.069.029.106.034.047.006.094.013.125.056-.236.27-.134.527-.028.794.066.168.134.339.12.52-.518 1.526-1.031 3.052-1.341 4.664-.111.257-.334.332-.557.408-.113.037-.224.075-.322.136-.133.2-.292.389-.452.578-.322.382-.645.765-.75 1.234.088.172.137.373.186.573.097.4.194.799.6.968.21.383.524.282.837.18.157-.05.314-.1.458-.09.164-.273.082-.545 0-.818-.04-.135-.081-.27-.092-.405.237-.096.515-.094.792-.091.222.001.443.003.642-.045.11-.235.212-.474.315-.712.213-.496.427-.991.702-1.462.274-1.15.693-2.26 1.248-3.306.05-.037.047-.093.046-.149-.003-.07-.005-.139.093-.169.547.134.892.598 1.225 1.046.129.174.256.345.393.495.113.311.378.563.644.815.212.2.425.402.558.634.094.345.18.694.267 1.042.183.734.366 1.468.611 2.174.023.174.013.346.003.512-.023.373-.043.716.321.983.1.063.202.134.305.205.57.394 1.19.823 1.915.428v-.589c-.09-.265-.249-.502-.407-.74-.268-.403-.536-.807-.472-1.343.085-.577-.038-1.07-.162-1.563-.123-.492-.247-.985-.161-1.563-.238-.232-.392-.498-.547-.763-.138-.236-.275-.473-.47-.686-.055-.129-.157-.24-.258-.35-.152-.164-.304-.328-.298-.555.031-.026.06-.056.088-.087.058-.06.116-.121.19-.14-.004-.413-.296-.729-.567-1.022-.077-.083-.153-.165-.22-.246-.12-.19-.281-.364-.442-.538-.201-.218-.402-.436-.528-.685l-.37.09c-.01-.094-.028-.185-.045-.276-.036-.186-.072-.372-.047-.585.028-.2.245-.332.463-.272.061-.228.073-.476.084-.724.01-.2.02-.4.054-.59.082-.155.228-.16.374-.164.062-.001.125-.003.181-.017.308.12.59 0 .856-.115.054-.023.108-.046.161-.066l.047.045c.076.033.117-.017.16-.068.022-.026.044-.052.07-.068.403.125.616-.156.831-.44.126-.166.252-.334.418-.42l.88.18c.138-.004.221-.071.184-.225.036-.103.01-.207-.016-.305-.034-.13-.064-.246.063-.33.082.193.156.39.23.585.196.521.391 1.041.741 1.499.143-.027.268-.104.37-.226-.384-.638-.773-1.332-.74-2.083.088.013.16.063.232.113.071.05.143.099.23.113.02-.022.038-.05.058-.08.074-.108.163-.238.312-.192.179-.78.833-.775 1.486-.77.326.002.652.004.918-.091l-.015-.015c-.021-.021-.043-.043-.032-.075h-.277c-.034-.017-.073-.032-.114-.046-.122-.044-.252-.09-.256-.226.027-.043.064-.062.102-.08.03-.015.06-.03.084-.056-.123-.076-.13-.196-.137-.316-.005-.08-.01-.16-.049-.228-.187-.055-.185.04-.184.148.002.087.003.182-.093.214-.12-.015-.23-.007-.333 0-.2.016-.373.029-.546-.135l.092-.09c-.033-.037-.129-.113-.23-.091-.037.274-.228.252-.445.227-.113-.013-.233-.027-.342 0-.186-.043-.168-.145-.147-.264.011-.06.023-.126.009-.19-.069.01-.126-.01-.183-.03l-.048-.016c-.023.398-.343.378-.655.358-.13-.009-.257-.017-.362.004-.124-.056-.295-.052-.466-.048-.34.007-.68.015-.644-.45-.258-.06-.429.08-.6.226-.38-.216-.607-.004-.822.196-.206.191-.4.372-.704.166-.042-.267.05-.48.185-.68.251-.26.119-.536-.009-.802zm.716 2.87c.261-.029.512-.056.633-.301-.12-.01-.237-.028-.354-.045-.244-.035-.488-.07-.756-.046l-.74.59c.083.144.287.198.462.226.148-.36.458-.393.755-.425z" clip-rule="evenodd" mask="url(#q9wqiz3n8a)"/>
    <path fill="#140474" fill-rule="evenodd" d="M12.5 23.3c5.965 0 10.8-4.835 10.8-10.8 0-5.965-4.835-10.8-10.8-10.8-5.965 0-10.8 4.835-10.8 10.8 0 5.965 4.835 10.8 10.8 10.8zm0 1.7C19.404 25 25 19.404 25 12.5S19.404 0 12.5 0 0 5.596 0 12.5 5.596 25 12.5 25z" clip-rule="evenodd"/>
</svg>
